<svg xmlns="http://www.w3.org/2000/svg" viewBox="0 0 512 512" width="512" height="512" role="img" aria-label="ריסטוק חכם">
  <defs>
    <linearGradient id="bg" x1="0" y1="0" x2="1" y2="1">
      <stop offset="0" stop-color="#3fd0c7"/>
      <stop offset="1" stop-color="#0a8880"/>
    </linearGradient>
  </defs>
  <rect width="512" height="512" rx="112" fill="url(#bg)"/>
  <!-- shopping bag body -->
  <path d="M176 214 h160 a24 24 0 0 1 23.9 21.3 l15 150 a30 30 0 0 1 -29.9 33 H167 a30 30 0 0 1 -29.9 -33 l15 -150 A24 24 0 0 1 176 214 z" fill="#ffffff"/>
  <!-- bag handle -->
  <path d="M208 224 v-20 a48 48 0 0 1 96 0 v20" fill="none" stroke="#ffffff" stroke-width="22" stroke-linecap="round"/>
  <!-- refresh / restock arrow -->
  <g fill="none" stroke="#0a8880" stroke-width="22" stroke-linecap="round">
    <path d="M312 322 a58 58 0 1 1 -18 -64"/>
  </g>
  <polygon points="286,238 316,262 280,276" fill="#0a8880"/>
</svg>
